<?xml version="1.0" encoding="utf-8"?>
<svg version="1.1" xmlns:xlink="http://www.w3.org/1999/xlink" width="12px" height="12px" viewBox="304 361  12 12" xmlns="http://www.w3.org/2000/svg">
  <path d="M 310 361  C 313.36 361  316 363.64  316 367  C 316 370.36  313.36 373  310 373  C 306.64 373  304 370.36  304 367  C 304 363.64  306.64 361  310 361  Z " fill-rule="nonzero" fill="#f0f0f0" stroke="none" />
  <path d="M 310 361.5  C 313.08 361.5  315.5 363.92  315.5 367  C 315.5 370.08  313.08 372.5  310 372.5  C 306.92 372.5  304.5 370.08  304.5 367  C 304.5 363.92  306.92 361.5  310 361.5  Z " stroke-width="1" stroke="#797979" fill="none" />
  <path d="M 310 370  C 308.32 370  307 368.68  307 367  C 307 365.32  308.32 364  310 364  C 311.68 364  313 365.32  313 367  C 313 368.68  311.68 370  310 370  " fill-rule="nonzero" fill="#797979" stroke="none" />
</svg>