<?xml version="1.0" encoding="utf-8"?>
<svg version="1.1" xmlns:xlink="http://www.w3.org/1999/xlink" width="12px" height="12px" viewBox="837 356  12 12" xmlns="http://www.w3.org/2000/svg">
  <path d="M 843 356  C 846.36 356  849 358.64  849 362  C 849 365.36  846.36 368  843 368  C 839.64 368  837 365.36  837 362  C 837 358.64  839.64 356  843 356  Z " fill-rule="nonzero" fill="#f0f0f0" stroke="none" />
  <path d="M 843 356.5  C 846.08 356.5  848.5 358.92  848.5 362  C 848.5 365.08  846.08 367.5  843 367.5  C 839.92 367.5  837.5 365.08  837.5 362  C 837.5 358.92  839.92 356.5  843 356.5  Z " stroke-width="1" stroke="#797979" fill="none" />
  <path d="M 843 365  C 841.32 365  840 363.68  840 362  C 840 360.32  841.32 359  843 359  C 844.68 359  846 360.32  846 362  C 846 363.68  844.68 365  843 365  " fill-rule="nonzero" fill="#797979" stroke="none" />
</svg>