<?xml version="1.0" encoding="utf-8"?>
<svg version="1.1" xmlns:xlink="http://www.w3.org/1999/xlink" width="12px" height="12px" viewBox="1369 365  12 12" xmlns="http://www.w3.org/2000/svg">
  <path d="M 1375 365  C 1378.36 365  1381 367.64  1381 371  C 1381 374.36  1378.36 377  1375 377  C 1371.64 377  1369 374.36  1369 371  C 1369 367.64  1371.64 365  1375 365  Z " fill-rule="nonzero" fill="#ffffff" stroke="none" />
  <path d="M 1375 365.5  C 1378.08 365.5  1380.5 367.92  1380.5 371  C 1380.5 374.08  1378.08 376.5  1375 376.5  C 1371.92 376.5  1369.5 374.08  1369.5 371  C 1369.5 367.92  1371.92 365.5  1375 365.5  Z " stroke-width="1" stroke="#797979" fill="none" />
  <path d="M 1375 374  C 1373.32 374  1372 372.68  1372 371  C 1372 369.32  1373.32 368  1375 368  C 1376.68 368  1378 369.32  1378 371  C 1378 372.68  1376.68 374  1375 374  " fill-rule="nonzero" fill="#797979" stroke="none" />
</svg>