<?xml version="1.0" encoding="utf-8"?>
<svg version="1.1" xmlns:xlink="http://www.w3.org/1999/xlink" width="12px" height="12px" viewBox="306 764  12 12" xmlns="http://www.w3.org/2000/svg">
  <path d="M 312 764  C 315.36 764  318 766.64  318 770  C 318 773.36  315.36 776  312 776  C 308.64 776  306 773.36  306 770  C 306 766.64  308.64 764  312 764  Z " fill-rule="nonzero" fill="#ffffff" stroke="none" />
  <path d="M 312 764.5  C 315.08 764.5  317.5 766.92  317.5 770  C 317.5 773.08  315.08 775.5  312 775.5  C 308.92 775.5  306.5 773.08  306.5 770  C 306.5 766.92  308.92 764.5  312 764.5  Z " stroke-width="1" stroke="#797979" fill="none" />
  <path d="M 312 773  C 310.32 773  309 771.68  309 770  C 309 768.32  310.32 767  312 767  C 313.68 767  315 768.32  315 770  C 315 771.68  313.68 773  312 773  " fill-rule="nonzero" fill="#797979" stroke="none" />
</svg>