<?xml version="1.0" encoding="utf-8"?>
<svg version="1.1" xmlns:xlink="http://www.w3.org/1999/xlink" width="12px" height="12px" viewBox="1387 764  12 12" xmlns="http://www.w3.org/2000/svg">
  <path d="M 1393 764  C 1396.36 764  1399 766.64  1399 770  C 1399 773.36  1396.36 776  1393 776  C 1389.64 776  1387 773.36  1387 770  C 1387 766.64  1389.64 764  1393 764  Z " fill-rule="nonzero" fill="#fb1717" stroke="none" fill-opacity="0.266666666666667" />
  <path d="M 1393 764.5  C 1396.08 764.5  1398.5 766.92  1398.5 770  C 1398.5 773.08  1396.08 775.5  1393 775.5  C 1389.92 775.5  1387.5 773.08  1387.5 770  C 1387.5 766.92  1389.92 764.5  1393 764.5  Z " stroke-width="1" stroke="#fb1717" fill="none" />
  <path d="M 1393 773  C 1391.32 773  1390 771.68  1390 770  C 1390 768.32  1391.32 767  1393 767  C 1394.68 767  1396 768.32  1396 770  C 1396 771.68  1394.68 773  1393 773  " fill-rule="nonzero" fill="#fb1717" stroke="none" />
</svg>