<?xml version="1.0" encoding="utf-8"?>
<svg version="1.1" xmlns:xlink="http://www.w3.org/1999/xlink" width="5px" height="6px" xmlns="http://www.w3.org/2000/svg">
  <g transform="matrix(1 0 0 1 -314 -283 )">
    <path d="M 3.84265734265734 3  L 4.77272727272727 3.6015625  C 4.87995337995338 3.66927083333333  4.9493006993007 3.77018229166667  4.98076923076923 3.904296875  C 5.01223776223776 4.03841145833333  4.997668997669 4.16536458333333  4.93706293706294 4.28515625  L 4.71328671328671 4.71484375  C 4.65268065268065 4.83463541666667  4.56235431235431 4.912109375  4.44230769230769 4.947265625  C 4.32226107226107 4.982421875  4.20862470862471 4.96614583333333  4.1013986013986 4.8984375  L 3.17132867132867 4.30078125  L 3.17132867132867 5.5  C 3.17132867132867 5.63541666666667  3.12703962703963 5.75260416666667  3.03846153846154 5.8515625  C 2.94988344988345 5.95052083333333  2.84498834498835 6  2.72377622377622 6  L 2.27622377622378 6  C 2.15501165501166 6  2.05011655011655 5.95052083333333  1.96153846153846 5.8515625  C 1.87296037296037 5.75260416666667  1.82867132867133 5.63541666666667  1.82867132867133 5.5  L 1.82867132867133 4.30078125  L 0.898601398601399 4.8984375  C 0.791375291375292 4.96614583333333  0.677738927738928 4.982421875  0.557692307692308 4.947265625  C 0.437645687645688 4.912109375  0.347319347319347 4.83463541666667  0.286713286713287 4.71484375  L 0.0629370629370629 4.28515625  C 0.00233100233100235 4.16536458333333  -0.0122377622377622 4.03841145833333  0.0192307692307692 3.904296875  C 0.0506993006993007 3.77018229166667  0.12004662004662 3.66927083333333  0.227272727272727 3.6015625  L 1.15734265734266 3  L 0.227272727272727 2.3984375  C 0.12004662004662 2.33072916666667  0.0506993006993007 2.22981770833333  0.0192307692307692 2.095703125  C -0.0122377622377622 1.96158854166667  0.00233100233100235 1.83463541666667  0.0629370629370629 1.71484375  L 0.286713286713287 1.28515625  C 0.347319347319347 1.16536458333333  0.437645687645688 1.087890625  0.557692307692308 1.052734375  C 0.677738927738928 1.017578125  0.791375291375292 1.03385416666667  0.898601398601399 1.1015625  L 1.82867132867133 1.69921875  L 1.82867132867133 0.5  C 1.82867132867133 0.364583333333333  1.87296037296037 0.247395833333333  1.96153846153846 0.1484375  C 2.05011655011655 0.0494791666666661  2.15501165501166 0  2.27622377622378 0  L 2.72377622377622 0  C 2.84498834498835 0  2.94988344988345 0.0494791666666661  3.03846153846154 0.1484375  C 3.12703962703963 0.247395833333333  3.17132867132867 0.364583333333333  3.17132867132867 0.5  L 3.17132867132867 1.69921875  L 4.1013986013986 1.1015625  C 4.20862470862471 1.03385416666667  4.32226107226107 1.017578125  4.44230769230769 1.052734375  C 4.56235431235431 1.087890625  4.65268065268065 1.16536458333333  4.71328671328671 1.28515625  L 4.93706293706294 1.71484375  C 4.997668997669 1.83463541666667  5.01223776223776 1.96158854166667  4.98076923076923 2.095703125  C 4.9493006993007 2.22981770833333  4.87995337995338 2.33072916666667  4.77272727272727 2.3984375  L 3.84265734265734 3  Z " fill-rule="nonzero" fill="#ff1212" stroke="none" transform="matrix(1 0 0 1 314 283 )" />
  </g>
</svg>