<?xml version="1.0" encoding="utf-8"?>
<svg version="1.1" xmlns:xlink="http://www.w3.org/1999/xlink" width="23px" height="25px" xmlns="http://www.w3.org/2000/svg">
  <g transform="matrix(1 0 0 1 -1108 -2260 )">
    <path d="M 1119.5 2260  C 1125.94 2260  1131 2265.5  1131 2272.5  C 1131 2279.5  1125.94 2285  1119.5 2285  C 1113.06 2285  1108 2279.5  1108 2272.5  C 1108 2265.5  1113.06 2260  1119.5 2260  Z " fill-rule="nonzero" fill="#f21a1a" stroke="none" />
    <path d="M 1119.5 2260.5  C 1125.66 2260.5  1130.5 2265.78  1130.5 2272.5  C 1130.5 2279.22  1125.66 2284.5  1119.5 2284.5  C 1113.34 2284.5  1108.5 2279.22  1108.5 2272.5  C 1108.5 2265.78  1113.34 2260.5  1119.5 2260.5  Z " stroke-width="1" stroke="#ffffff" fill="none" />
  </g>
</svg>