<?xml version="1.0" encoding="utf-8"?>
<svg version="1.1" xmlns:xlink="http://www.w3.org/1999/xlink" width="21px" height="19px" xmlns="http://www.w3.org/2000/svg">
  <g transform="matrix(1 0 0 1 -3574 -283 )">
    <path d="M 14.84765625 11.875  C 14.84765625 11.9822048611111  14.80859375 12.0770399305556  14.73046875 12.1595052083333  L 13.01953125 13.9654947916667  C 12.94140625 14.0479600694444  12.8515625 14.0891927083333  12.75 14.0891927083333  C 12.6484375 14.0891927083333  12.55859375 14.0479600694444  12.48046875 13.9654947916667  L 10.5 11.875  L 8.51953125 13.9654947916667  C 8.44140625 14.0479600694444  8.3515625 14.0891927083333  8.25 14.0891927083333  C 8.1484375 14.0891927083333  8.05859375 14.0479600694444  7.98046875 13.9654947916667  L 6.26953125 12.1595052083333  C 6.19140625 12.0770399305556  6.15234375 11.9822048611111  6.15234375 11.875  C 6.15234375 11.7677951388889  6.19140625 11.6729600694444  6.26953125 11.5904947916667  L 8.25 9.5  L 6.26953125 7.40950520833333  C 6.19140625 7.32703993055555  6.15234375 7.23220486111111  6.15234375 7.125  C 6.15234375 7.01779513888889  6.19140625 6.92296006944444  6.26953125 6.84049479166667  L 7.98046875 5.03450520833333  C 8.05859375 4.95203993055555  8.1484375 4.91080729166667  8.25 4.91080729166667  C 8.3515625 4.91080729166667  8.44140625 4.95203993055555  8.51953125 5.03450520833333  L 10.5 7.125  L 12.48046875 5.03450520833333  C 12.55859375 4.95203993055555  12.6484375 4.91080729166667  12.75 4.91080729166667  C 12.8515625 4.91080729166667  12.94140625 4.95203993055555  13.01953125 5.03450520833333  L 14.73046875 6.84049479166667  C 14.80859375 6.92296006944444  14.84765625 7.01779513888889  14.84765625 7.125  C 14.84765625 7.23220486111111  14.80859375 7.32703993055555  14.73046875 7.40950520833333  L 12.75 9.5  L 14.73046875 11.5904947916667  C 14.80859375 11.6729600694444  14.84765625 11.7677951388889  14.84765625 11.875  Z M 3 3.16666666666667  L 3 15.8333333333333  L 18 15.8333333333333  L 18 3.16666666666667  L 3 3.16666666666667  Z M 20.44921875 0.581380208333334  C 20.81640625 0.968967013888888  21 1.43489583333333  21 1.97916666666667  L 21 17.0208333333333  C 21 17.5651041666667  20.81640625 18.0310329861111  20.44921875 18.4186197916667  C 20.08203125 18.8062065972222  19.640625 19  19.125 19  L 1.875 19  C 1.359375 19  0.91796875 18.8062065972222  0.55078125 18.4186197916667  C 0.18359375 18.0310329861111  0 17.5651041666667  0 17.0208333333333  L 0 1.97916666666667  C 0 1.43489583333333  0.18359375 0.968967013888888  0.55078125 0.581380208333334  C 0.91796875 0.193793402777776  1.359375 0  1.875 0  L 19.125 0  C 19.640625 0  20.08203125 0.193793402777776  20.44921875 0.581380208333334  Z " fill-rule="nonzero" fill="#aaaaaa" stroke="none" transform="matrix(1 0 0 1 3574 283 )" />
  </g>
</svg>