<?xml version="1.0" encoding="utf-8"?>
<svg version="1.1" xmlns:xlink="http://www.w3.org/1999/xlink" width="211px" height="340px" xmlns="http://www.w3.org/2000/svg">
  <g transform="matrix(1 0 0 1 -86 -643 )">
    <path d="M 87 649  A 5 5 0 0 1 92 644 L 291 644  A 5 5 0 0 1 296 649 L 296 977  A 5 5 0 0 1 291 982 L 92 982  A 5 5 0 0 1 87 977 L 87 649  Z " fill-rule="nonzero" fill="#ffffff" stroke="none" fill-opacity="0" />
    <path d="M 86.5 649  A 5.5 5.5 0 0 1 92 643.5 L 291 643.5  A 5.5 5.5 0 0 1 296.5 649 L 296.5 977  A 5.5 5.5 0 0 1 291 982.5 L 92 982.5  A 5.5 5.5 0 0 1 86.5 977 L 86.5 649  Z " stroke-width="1" stroke-dasharray="9,4" stroke="#797979" fill="none" stroke-dashoffset="0.5" />
  </g>
</svg>