<?xml version="1.0" encoding="utf-8"?>
<svg version="1.1" xmlns:xlink="http://www.w3.org/1999/xlink" width="23px" height="23px" xmlns="http://www.w3.org/2000/svg">
  <g transform="matrix(1 0 0 1 -619 -799 )">
    <path d="M 630.5 799  C 636.94 799  642 804.06  642 810.5  C 642 816.94  636.94 822  630.5 822  C 624.06 822  619 816.94  619 810.5  C 619 804.06  624.06 799  630.5 799  Z " fill-rule="nonzero" fill="#f21a1a" stroke="none" />
    <path d="M 630.5 799.5  C 636.66 799.5  641.5 804.34  641.5 810.5  C 641.5 816.66  636.66 821.5  630.5 821.5  C 624.34 821.5  619.5 816.66  619.5 810.5  C 619.5 804.34  624.34 799.5  630.5 799.5  Z " stroke-width="1" stroke="#ffffff" fill="none" />
  </g>
</svg>