<?xml version="1.0" encoding="utf-8"?>
<svg version="1.1" xmlns:xlink="http://www.w3.org/1999/xlink" width="12px" height="12px" viewBox="2095 329  12 12" xmlns="http://www.w3.org/2000/svg">
  <path d="M 2101 329  C 2104.36 329  2107 331.64  2107 335  C 2107 338.36  2104.36 341  2101 341  C 2097.64 341  2095 338.36  2095 335  C 2095 331.64  2097.64 329  2101 329  Z " fill-rule="nonzero" fill="#ffffff" stroke="none" />
  <path d="M 2101 329.5  C 2104.08 329.5  2106.5 331.92  2106.5 335  C 2106.5 338.08  2104.08 340.5  2101 340.5  C 2097.92 340.5  2095.5 338.08  2095.5 335  C 2095.5 331.92  2097.92 329.5  2101 329.5  Z " stroke-width="1" stroke="#797979" fill="none" />
  <path d="M 2101 338  C 2099.32 338  2098 336.68  2098 335  C 2098 333.32  2099.32 332  2101 332  C 2102.68 332  2104 333.32  2104 335  C 2104 336.68  2102.68 338  2101 338  " fill-rule="nonzero" fill="#797979" stroke="none" />
</svg>