<?xml version="1.0" encoding="utf-8"?>
<svg version="1.1" xmlns:xlink="http://www.w3.org/1999/xlink" width="12px" height="12px" viewBox="2080 1238  12 12" xmlns="http://www.w3.org/2000/svg">
  <path d="M 2086 1238  C 2089.36 1238  2092 1240.64  2092 1244  C 2092 1247.36  2089.36 1250  2086 1250  C 2082.64 1250  2080 1247.36  2080 1244  C 2080 1240.64  2082.64 1238  2086 1238  Z " fill-rule="nonzero" fill="#ffffff" stroke="none" />
  <path d="M 2086 1238.5  C 2089.08 1238.5  2091.5 1240.92  2091.5 1244  C 2091.5 1247.08  2089.08 1249.5  2086 1249.5  C 2082.92 1249.5  2080.5 1247.08  2080.5 1244  C 2080.5 1240.92  2082.92 1238.5  2086 1238.5  Z " stroke-width="1" stroke="#797979" fill="none" />
  <path d="M 2086 1247  C 2084.32 1247  2083 1245.68  2083 1244  C 2083 1242.32  2084.32 1241  2086 1241  C 2087.68 1241  2089 1242.32  2089 1244  C 2089 1245.68  2087.68 1247  2086 1247  " fill-rule="nonzero" fill="#797979" stroke="none" />
</svg>