<?xml version="1.0" encoding="utf-8"?>
<svg version="1.1" xmlns:xlink="http://www.w3.org/1999/xlink" width="9px" height="12px" xmlns="http://www.w3.org/2000/svg">
  <g transform="matrix(1 0 0 1 -430 -1000 )">
    <path d="M 2.5 3.81818181818182  L 2.5 5.45454545454546  L 6.5 5.45454545454546  L 6.5 3.81818181818182  C 6.5 3.21590909090909  6.3046875 2.70170454545455  5.9140625 2.27556818181818  C 5.5234375 1.84943181818182  5.05208333333333 1.63636363636364  4.5 1.63636363636364  C 3.94791666666667 1.63636363636364  3.4765625 1.84943181818182  3.0859375 2.27556818181818  C 2.6953125 2.70170454545455  2.5 3.21590909090909  2.5 3.81818181818182  Z M 8.78125 5.69318181818182  C 8.92708333333333 5.85227272727273  9 6.04545454545454  9 6.27272727272727  L 9 11.1818181818182  C 9 11.4090909090909  8.92708333333333 11.6022727272727  8.78125 11.7613636363636  C 8.63541666666667 11.9204545454545  8.45833333333333 12  8.25 12  L 0.75 12  C 0.541666666666667 12  0.364583333333333 11.9204545454545  0.21875 11.7613636363636  C 0.0729166666666667 11.6022727272727  0 11.4090909090909  0 11.1818181818182  L 0 6.27272727272727  C 0 6.04545454545454  0.0729166666666667 5.85227272727273  0.21875 5.69318181818182  C 0.364583333333333 5.53409090909091  0.541666666666667 5.45454545454546  0.75 5.45454545454546  L 1 5.45454545454546  L 1 3.81818181818182  C 1 2.77272727272727  1.34375 1.875  2.03125 1.125  C 2.71875 0.375  3.54166666666667 0  4.5 0  C 5.45833333333333 0  6.28125 0.375  6.96875 1.125  C 7.65625 1.875  8 2.77272727272727  8 3.81818181818182  L 8 5.45454545454546  L 8.25 5.45454545454546  C 8.45833333333333 5.45454545454546  8.63541666666667 5.53409090909091  8.78125 5.69318181818182  Z " fill-rule="nonzero" fill="#000000" stroke="none" fill-opacity="0.411764705882353" transform="matrix(1 0 0 1 430 1000 )" />
  </g>
</svg>