<?xml version="1.0" encoding="utf-8"?>
<svg version="1.1" xmlns:xlink="http://www.w3.org/1999/xlink" width="8px" height="12px" xmlns="http://www.w3.org/2000/svg">
  <g transform="matrix(1 0 0 1 -1435 -1035 )">
    <path d="M 2.22222222222222 3.81818181818182  L 2.22222222222222 5.45454545454546  L 5.77777777777778 5.45454545454546  L 5.77777777777778 3.81818181818182  C 5.77777777777778 3.21590909090909  5.60416666666667 2.70170454545455  5.25694444444444 2.27556818181818  C 4.90972222222222 1.84943181818182  4.49074074074074 1.63636363636364  4 1.63636363636364  C 3.50925925925926 1.63636363636364  3.09027777777778 1.84943181818182  2.74305555555556 2.27556818181818  C 2.39583333333333 2.70170454545455  2.22222222222222 3.21590909090909  2.22222222222222 3.81818181818182  Z M 7.80555555555556 5.69318181818182  C 7.93518518518519 5.85227272727273  8 6.04545454545454  8 6.27272727272727  L 8 11.1818181818182  C 8 11.4090909090909  7.93518518518519 11.6022727272727  7.80555555555556 11.7613636363636  C 7.67592592592593 11.9204545454545  7.51851851851852 12  7.33333333333333 12  L 0.666666666666667 12  C 0.481481481481482 12  0.324074074074074 11.9204545454545  0.194444444444444 11.7613636363636  C 0.0648148148148148 11.6022727272727  0 11.4090909090909  0 11.1818181818182  L 0 6.27272727272727  C 0 6.04545454545454  0.0648148148148148 5.85227272727273  0.194444444444444 5.69318181818182  C 0.324074074074074 5.53409090909091  0.481481481481482 5.45454545454546  0.666666666666667 5.45454545454546  L 0.888888888888889 5.45454545454546  L 0.888888888888889 3.81818181818182  C 0.888888888888889 2.77272727272727  1.19444444444444 1.875  1.80555555555556 1.125  C 2.41666666666667 0.375  3.14814814814815 0  4 0  C 4.85185185185185 0  5.58333333333333 0.375  6.19444444444444 1.125  C 6.80555555555556 1.875  7.11111111111111 2.77272727272727  7.11111111111111 3.81818181818182  L 7.11111111111111 5.45454545454546  L 7.33333333333333 5.45454545454546  C 7.51851851851852 5.45454545454546  7.67592592592593 5.53409090909091  7.80555555555556 5.69318181818182  Z " fill-rule="nonzero" fill="#000000" stroke="none" fill-opacity="0.411764705882353" transform="matrix(1 0 0 1 1435 1035 )" />
  </g>
</svg>