<?xml version="1.0" encoding="utf-8"?>
<svg version="1.1" xmlns:xlink="http://www.w3.org/1999/xlink" width="135px" height="25px" xmlns="http://www.w3.org/2000/svg">
  <g transform="matrix(1 0 0 1 -2687 -447 )">
    <path d="M 2688 457  A 9 9 0 0 1 2697 448 L 2812 448  A 9 9 0 0 1 2821 457 L 2821 462  A 9 9 0 0 1 2812 471 L 2697 471  A 9 9 0 0 1 2688 462 L 2688 457  Z " fill-rule="nonzero" fill="#fdffb3" stroke="none" fill-opacity="0" />
    <path d="M 2687.5 457  A 9.5 9.5 0 0 1 2697 447.5 L 2812 447.5  A 9.5 9.5 0 0 1 2821.5 457 L 2821.5 462  A 9.5 9.5 0 0 1 2812 471.5 L 2697 471.5  A 9.5 9.5 0 0 1 2687.5 462 L 2687.5 457  Z " stroke-width="1" stroke-dasharray="3,1" stroke="#797979" fill="none" stroke-dashoffset="0.5" />
  </g>
</svg>