<?xml version="1.0" encoding="utf-8"?>
<svg version="1.1" xmlns:xlink="http://www.w3.org/1999/xlink" width="136px" height="25px" xmlns="http://www.w3.org/2000/svg">
  <g transform="matrix(1 0 0 1 -2687 -403 )">
    <path d="M 2688 413  A 9 9 0 0 1 2697 404 L 2813 404  A 9 9 0 0 1 2822 413 L 2822 418  A 9 9 0 0 1 2813 427 L 2697 427  A 9 9 0 0 1 2688 418 L 2688 413  Z " fill-rule="nonzero" fill="#fdffb3" stroke="none" fill-opacity="0" />
    <path d="M 2687.5 413  A 9.5 9.5 0 0 1 2697 403.5 L 2813 403.5  A 9.5 9.5 0 0 1 2822.5 413 L 2822.5 418  A 9.5 9.5 0 0 1 2813 427.5 L 2697 427.5  A 9.5 9.5 0 0 1 2687.5 418 L 2687.5 413  Z " stroke-width="1" stroke-dasharray="3,1" stroke="#797979" fill="none" stroke-dashoffset="0.5" />
  </g>
</svg>