<?xml version="1.0" encoding="utf-8"?>
<svg version="1.1" xmlns:xlink="http://www.w3.org/1999/xlink" width="135px" height="25px" xmlns="http://www.w3.org/2000/svg">
  <defs>
    <mask fill="white" id="clip8">
      <path d="M 0 15  L 0 10  C 0 4.40000000000009  4.39999999999998 0  10 0  L 108.341772151899 0  L 125 0  C 130.6 0  135 4.40000000000009  135 10  L 135 15  C 135 20.5999999999999  130.6 25  125 25  L 10 25  C 4.39999999999998 25  0 20.5999999999999  0 15  Z " fill-rule="evenodd" />
    </mask>
  </defs>
  <g transform="matrix(1 0 0 1 -3411 -373 )">
    <path d="M 0 15  L 0 10  C 0 4.40000000000009  4.39999999999998 0  10 0  L 108.341772151899 0  L 125 0  C 130.6 0  135 4.40000000000009  135 10  L 135 15  C 135 20.5999999999999  130.6 25  125 25  L 10 25  C 4.39999999999998 25  0 20.5999999999999  0 15  Z " fill-rule="nonzero" fill="#fdffb3" stroke="none" fill-opacity="0" transform="matrix(1 0 0 1 3411 373 )" />
    <path d="M 0 15  L 0 10  C 0 4.40000000000009  4.39999999999998 0  10 0  L 108.341772151899 0  L 125 0  C 130.6 0  135 4.40000000000009  135 10  L 135 15  C 135 20.5999999999999  130.6 25  125 25  L 10 25  C 4.39999999999998 25  0 20.5999999999999  0 15  Z " stroke-width="2" stroke-dasharray="3,1" stroke="#797979" fill="none" transform="matrix(1 0 0 1 3411 373 )" mask="url(#clip8)" />
  </g>
</svg>