<?xml version="1.0" encoding="utf-8"?>
<svg version="1.1" xmlns:xlink="http://www.w3.org/1999/xlink" width="59px" height="59px" xmlns="http://www.w3.org/2000/svg">
  <g transform="matrix(1 0 0 1 -1683 -2413 )">
    <path d="M 1712.5 2413.5  C 1728.74 2413.5  1741.5 2426.26  1741.5 2442.5  C 1741.5 2458.74  1728.74 2471.5  1712.5 2471.5  C 1696.26 2471.5  1683.5 2458.74  1683.5 2442.5  C 1683.5 2426.26  1696.26 2413.5  1712.5 2413.5  Z " fill-rule="nonzero" fill="#ffffff" stroke="none" fill-opacity="0" />
    <path d="M 1712.5 2413.5  C 1728.74 2413.5  1741.5 2426.26  1741.5 2442.5  C 1741.5 2458.74  1728.74 2471.5  1712.5 2471.5  C 1696.26 2471.5  1683.5 2458.74  1683.5 2442.5  C 1683.5 2426.26  1696.26 2413.5  1712.5 2413.5  Z " stroke-width="1" stroke-dasharray="3,1" stroke="#797979" fill="none" stroke-dashoffset="0.5" />
  </g>
</svg>