<?xml version="1.0" encoding="utf-8"?>
<svg version="1.1" xmlns:xlink="http://www.w3.org/1999/xlink" width="12px" height="10px" xmlns="http://www.w3.org/2000/svg">
  <g transform="matrix(1 0 0 1 -1174 -188 )">
    <path d="M 7.9204545454545 5.53409090909091  C 7.97348484848476 5.58712121212122  8 5.65151515151516  8 5.72727272727272  L 8 6.27272727272728  C 8 6.34848484848484  7.97348484848476 6.41287878787878  7.9204545454545 6.46590909090909  C 7.86742424242425 6.51893939393941  7.80303030303025 6.54545454545453  7.72727272727275 6.54545454545453  L 6.5454545454545 6.54545454545453  L 6.5454545454545 7.72727272727272  C 6.5454545454545 7.80303030303031  6.51893939393949 7.86742424242425  6.46590909090901 7.92045454545453  C 6.41287878787875 7.97348484848484  6.34848484848476 8  6.27272727272725 8  L 5.72727272727275 8  C 5.65151515151524 8  5.58712121212125 7.97348484848484  5.53409090909099 7.92045454545453  C 5.48106060606051 7.86742424242425  5.4545454545455 7.80303030303031  5.4545454545455 7.72727272727272  L 5.4545454545455 6.54545454545453  L 4.27272727272725 6.54545454545453  C 4.19696969696975 6.54545454545453  4.13257575757575 6.51893939393941  4.0795454545455 6.46590909090909  C 4.02651515151524 6.41287878787878  4 6.34848484848484  4 6.27272727272728  L 4 5.72727272727272  C 4 5.65151515151516  4.02651515151524 5.58712121212122  4.0795454545455 5.53409090909091  C 4.13257575757575 5.48106060606059  4.19696969696975 5.45454545454547  4.27272727272725 5.45454545454547  L 5.4545454545455 5.45454545454547  L 5.4545454545455 4.27272727272728  C 5.4545454545455 4.19696969696969  5.48106060606051 4.13257575757575  5.53409090909099 4.07954545454547  C 5.58712121212125 4.02651515151516  5.65151515151524 4  5.72727272727275 4  L 6.27272727272725 4  C 6.34848484848476 4  6.41287878787875 4.02651515151516  6.46590909090901 4.07954545454547  C 6.51893939393949 4.13257575757575  6.5454545454545 4.19696969696969  6.5454545454545 4.27272727272728  L 6.5454545454545 5.45454545454547  L 7.72727272727275 5.45454545454547  C 7.80303030303025 5.45454545454547  7.86742424242425 5.48106060606059  7.9204545454545 5.53409090909091  Z M 10.875 8.89204545454544  C 11.0096153846155 8.75946969696969  11.0769230769231 8.59848484848484  11.0769230769231 8.40909090909091  L 11.0769230769231 3.40909090909091  C 11.0769230769231 3.21969696969697  11.0096153846155 3.05871212121212  10.875 2.92613636363637  C 10.7403846153845 2.79356060606059  10.5769230769231 2.72727272727272  10.3846153846155 2.72727272727272  L 5.30769230769238 2.72727272727272  C 5.11538461538453 2.72727272727272  4.95192307692309 2.66098484848484  4.81730769230762 2.52840909090909  C 4.68269230769238 2.39583333333334  4.61538461538453 2.23484848484847  4.61538461538453 2.04545454545453  L 4.61538461538453 1.59090909090909  C 4.61538461538453 1.40151515151516  4.54807692307691 1.24053030303031  4.41346153846143 1.10795454545453  C 4.27884615384619 0.975378787878782  4.11538461538453 0.909090909090907  3.92307692307691 0.909090909090907  L 1.61538461538453 0.909090909090907  C 1.42307692307691 0.909090909090907  1.25961538461547 0.975378787878782  1.125 1.10795454545453  C 0.990384615384528 1.24053030303031  0.923076923076906 1.40151515151516  0.923076923076906 1.59090909090909  L 0.923076923076906 8.40909090909091  C 0.923076923076906 8.59848484848484  0.990384615384528 8.75946969696969  1.125 8.89204545454544  C 1.25961538461547 9.02462121212122  1.42307692307691 9.09090909090909  1.61538461538453 9.09090909090909  L 10.3846153846155 9.09090909090909  C 10.5769230769231 9.09090909090909  10.7403846153845 9.02462121212122  10.875 8.89204545454544  Z M 11.5240384615386 2.28693181818181  C 11.8413461538462 2.59943181818181  12 2.97348484848484  12 3.40909090909091  L 12 8.40909090909091  C 12 8.84469696969697  11.8413461538462 9.21875  11.5240384615386 9.53125  C 11.2067307692307 9.84375  10.8269230769231 10  10.3846153846155 10  L 1.61538461538453 10  C 1.17307692307691 10  0.793269230769283 9.84375  0.475961538461434 9.53125  C 0.158653846153811 9.21875  0 8.84469696969697  0 8.40909090909091  L 0 1.59090909090909  C 0 1.15530303030303  0.158653846153811 0.78125  0.475961538461434 0.46875  C 0.793269230769283 0.15625  1.17307692307691 0  1.61538461538453 0  L 3.92307692307691 0  C 4.36538461538453 0  4.74519230769238 0.15625  5.0625 0.46875  C 5.37980769230762 0.78125  5.53846153846143 1.15530303030303  5.53846153846143 1.59090909090909  L 5.53846153846143 1.81818181818181  L 10.3846153846155 1.81818181818181  C 10.8269230769231 1.81818181818181  11.2067307692307 1.97443181818181  11.5240384615386 2.28693181818181  Z " fill-rule="nonzero" fill="#ffffff" stroke="none" transform="matrix(1 0 0 1 1174 188 )" />
  </g>
</svg>