<?xml version="1.0" encoding="utf-8"?>
<svg version="1.1" xmlns:xlink="http://www.w3.org/1999/xlink" width="14px" height="14px" xmlns="http://www.w3.org/2000/svg">
  <g transform="matrix(1 0 0 1 -3078 -4273 )">
    <path d="M 3085 4273  C 3088.92 4273  3092 4276.08  3092 4280  C 3092 4283.92  3088.92 4287  3085 4287  C 3081.08 4287  3078 4283.92  3078 4280  C 3078 4276.08  3081.08 4273  3085 4273  Z " fill-rule="nonzero" fill="#ffffff" stroke="none" />
    <path d="M 3085 4273.5  C 3088.64 4273.5  3091.5 4276.36  3091.5 4280  C 3091.5 4283.64  3088.64 4286.5  3085 4286.5  C 3081.36 4286.5  3078.5 4283.64  3078.5 4280  C 3078.5 4276.36  3081.36 4273.5  3085 4273.5  Z " stroke-width="1" stroke="#797979" fill="none" />
  </g>
</svg>