<?xml version="1.0" encoding="utf-8"?>
<svg version="1.1" xmlns:xlink="http://www.w3.org/1999/xlink" width="69px" height="72px" xmlns="http://www.w3.org/2000/svg">
  <g transform="matrix(1 0 0 1 -3026 -4272 )">
    <path d="M 3026 4272  L 3095 4272  L 3095 4344  L 3026 4344  L 3026 4272  " fill-rule="nonzero" fill="#cccccc" stroke="none" />
    <path d="M 3031 4277  L 3090 4277  L 3090 4339  L 3031 4339  L 3031 4277  " fill-rule="nonzero" fill="#ffffff" stroke="none" />
    <path d="M 3067.055 4293.15  C 3064.157 4293.15  3061.88 4290.873  3061.88 4287.975  C 3061.88 4285.077  3064.157 4282.8  3067.055 4282.8  C 3069.953 4282.8  3072.23 4285.077  3072.23 4287.975  C 3072.23 4290.873  3069.953 4293.15  3067.055 4293.15  " fill-rule="nonzero" fill="#cccccc" stroke="none" />
    <path d="M 3033 4338  L 3033 4305.55  L 3047 4290.8  L 3066.6 4302.6  L 3077.8 4299.65  L 3089 4302.6  L 3089 4338  L 3033 4338  " fill-rule="nonzero" fill="#169bd5" stroke="none" />
  </g>
</svg>