<?xml version="1.0" encoding="utf-8"?>
<svg version="1.1" xmlns:xlink="http://www.w3.org/1999/xlink" width="14px" height="14px" xmlns="http://www.w3.org/2000/svg">
  <g transform="matrix(1 0 0 1 -3158 -4192 )">
    <path d="M 3165 4192  C 3168.92 4192  3172 4195.08  3172 4199  C 3172 4202.92  3168.92 4206  3165 4206  C 3161.08 4206  3158 4202.92  3158 4199  C 3158 4195.08  3161.08 4192  3165 4192  Z " fill-rule="nonzero" fill="#fad61e" stroke="none" />
    <path d="M 3165 4192.5  C 3168.64 4192.5  3171.5 4195.36  3171.5 4199  C 3171.5 4202.64  3168.64 4205.5  3165 4205.5  C 3161.36 4205.5  3158.5 4202.64  3158.5 4199  C 3158.5 4195.36  3161.36 4192.5  3165 4192.5  Z " stroke-width="1" stroke="#797979" fill="none" />
  </g>
</svg>