<?xml version="1.0" encoding="utf-8"?>
<svg version="1.1" xmlns:xlink="http://www.w3.org/1999/xlink" width="42px" height="36px" xmlns="http://www.w3.org/2000/svg">
  <g transform="matrix(1 0 0 1 -3038 -4203 )">
    <path d="M 16.5484375 16.3665865384615  C 17.7807291666667 15.1478365384615  19.2645833333333 14.5384615384615  21 14.5384615384615  C 22.7354166666667 14.5384615384615  24.2192708333333 15.1478365384615  25.4515625 16.3665865384615  C 26.6838541666667 17.5853365384615  27.3 19.0528846153846  27.3 20.7692307692308  C 27.3 22.4855769230769  26.6838541666667 23.953125  25.4515625 25.171875  C 24.2192708333333 26.390625  22.7354166666667 27  21 27  C 19.2645833333333 27  17.7807291666667 26.390625  16.5484375 25.171875  C 15.3161458333333 23.953125  14.7 22.4855769230769  14.7 20.7692307692308  C 14.7 19.0528846153846  15.3161458333333 17.5853365384615  16.5484375 16.3665865384615  Z M 31.5 5.53846153846154  L 36.4 5.53846153846154  C 37.9458333333333 5.53846153846154  39.265625 6.07932692307692  40.359375 7.16105769230769  C 41.453125 8.24278846153846  42 9.54807692307692  42 11.0769230769231  L 42 30.4615384615385  C 42 31.9903846153846  41.453125 33.2956730769231  40.359375 34.3774038461538  C 39.265625 35.4591346153846  37.9458333333333 36  36.4 36  L 5.6 36  C 4.05416666666667 36  2.734375 35.4591346153846  1.640625 34.3774038461538  C 0.546875 33.2956730769231  0 31.9903846153846  0 30.4615384615385  L 0 11.0769230769231  C 0 9.54807692307692  0.546875 8.24278846153846  1.640625 7.16105769230769  C 2.734375 6.07932692307692  4.05416666666667 5.53846153846154  5.6 5.53846153846154  L 10.5 5.53846153846154  L 11.615625 2.59615384615384  C 11.8927083333333 1.88942307692308  12.3994791666667 1.28004807692307  13.1359375 0.768028846153845  C 13.8723958333333 0.256009615384619  14.6270833333333 0  15.4 0  L 26.6 0  C 27.3729166666667 0  28.1276041666667 0.256009615384619  28.8640625 0.768028846153845  C 29.6005208333333 1.28004807692307  30.1072916666667 1.88942307692308  30.384375 2.59615384615384  L 31.5 5.53846153846154  Z M 14.0765625 27.6165865384615  C 15.9942708333333 29.5132211538462  18.3020833333333 30.4615384615385  21 30.4615384615385  C 23.6979166666667 30.4615384615385  26.0057291666667 29.5132211538462  27.9234375 27.6165865384615  C 29.8411458333333 25.7199519230769  30.8 23.4375  30.8 20.7692307692308  C 30.8 18.1009615384615  29.8411458333333 15.8185096153846  27.9234375 13.921875  C 26.0057291666667 12.0252403846154  23.6979166666667 11.0769230769231  21 11.0769230769231  C 18.3020833333333 11.0769230769231  15.9942708333333 12.0252403846154  14.0765625 13.921875  C 12.1588541666667 15.8185096153846  11.2 18.1009615384615  11.2 20.7692307692308  C 11.2 23.4375  12.1588541666667 25.7199519230769  14.0765625 27.6165865384615  Z " fill-rule="nonzero" fill="#aaaaaa" stroke="none" transform="matrix(1 0 0 1 3038 4203 )" />
  </g>
</svg>