<?xml version="1.0" encoding="utf-8"?>
<svg version="1.1" xmlns:xlink="http://www.w3.org/1999/xlink" width="19px" height="19px" xmlns="http://www.w3.org/2000/svg">
  <g transform="matrix(1 0 0 1 -3325 -4977 )">
    <path d="M 3334.5 4977  C 3339.82 4977  3344 4981.18  3344 4986.5  C 3344 4991.82  3339.82 4996  3334.5 4996  C 3329.18 4996  3325 4991.82  3325 4986.5  C 3325 4981.18  3329.18 4977  3334.5 4977  Z " fill-rule="nonzero" fill="#fad61e" stroke="none" />
    <path d="M 3334.5 4977.5  C 3339.54 4977.5  3343.5 4981.46  3343.5 4986.5  C 3343.5 4991.54  3339.54 4995.5  3334.5 4995.5  C 3329.46 4995.5  3325.5 4991.54  3325.5 4986.5  C 3325.5 4981.46  3329.46 4977.5  3334.5 4977.5  Z " stroke-width="1" stroke="#797979" fill="none" />
  </g>
</svg>