<?xml version="1.0" encoding="utf-8"?>
<svg version="1.1" xmlns:xlink="http://www.w3.org/1999/xlink" width="17px" height="17px" xmlns="http://www.w3.org/2000/svg">
  <g transform="matrix(1 0 0 1 -3377 -4977 )">
    <path d="M 3385.5 4977  C 3390.26 4977  3394 4980.74  3394 4985.5  C 3394 4990.26  3390.26 4994  3385.5 4994  C 3380.74 4994  3377 4990.26  3377 4985.5  C 3377 4980.74  3380.74 4977  3385.5 4977  Z " fill-rule="nonzero" fill="#ffffff" stroke="none" />
    <path d="M 3385.5 4977.5  C 3389.98 4977.5  3393.5 4981.02  3393.5 4985.5  C 3393.5 4989.98  3389.98 4993.5  3385.5 4993.5  C 3381.02 4993.5  3377.5 4989.98  3377.5 4985.5  C 3377.5 4981.02  3381.02 4977.5  3385.5 4977.5  Z " stroke-width="1" stroke="#797979" fill="none" />
  </g>
</svg>