<?xml version="1.0" encoding="utf-8"?>
<svg version="1.1" xmlns:xlink="http://www.w3.org/1999/xlink" width="102px" height="98px" xmlns="http://www.w3.org/2000/svg">
  <g transform="matrix(1 0 0 1 -4049 -3389 )">
    <path d="M 4049 3389  L 4151 3389  L 4151 3487  L 4049 3487  L 4049 3389  " fill-rule="nonzero" fill="#cccccc" stroke="none" />
    <path d="M 4056 3396  L 4144 3396  L 4144 3480  L 4056 3480  L 4056 3396  " fill-rule="nonzero" fill="#ffffff" stroke="none" />
    <path d="M 4109.39 3418.4  C 4105.274 3418.4  4102.04 3415.166  4102.04 3411.05  C 4102.04 3406.934  4105.274 3403.7  4109.39 3403.7  C 4113.506 3403.7  4116.74 3406.934  4116.74 3411.05  C 4116.74 3415.166  4113.506 3418.4  4109.39 3418.4  " fill-rule="nonzero" fill="#cccccc" stroke="none" />
    <path d="M 4059 3478  L 4059 3434.55  L 4079.75 3414.8  L 4108.8 3432.45882352941  L 4125.4 3426.65  L 4142 3432.45882352941  L 4142 3478  L 4059 3478  " fill-rule="nonzero" fill="#169bd5" stroke="none" />
  </g>
</svg>