<?xml version="1.0" encoding="utf-8"?>
<svg version="1.1" xmlns:xlink="http://www.w3.org/1999/xlink" width="25px" height="29px" xmlns="http://www.w3.org/2000/svg">
  <g transform="matrix(1 0 0 1 -3838 -4935 )">
    <path d="M 13.972675656494 12.6330472103004  C 14.2979654601372 12.9827304312283  14.4606103619588 13.3827917433068  14.4606103619588 13.8332311465359  C 14.5552401230187 14.5800122624157  14.2565649396735 15.1786225219702  13.5645848119233 15.6290619251993  C 12.8726046841732 16.0795013284284  12.2131535367873 16.1150623339465  11.5862313697658 15.7357449417535  C 11.124911284599 15.534232577151  10.8084930210551 15.1904761904762  10.6369765791341 14.704475781729  C 10.4654601372132 14.2184753729818  10.46250295718 13.7324749642346  10.6281050390348 13.2464745554874  C 10.7937071208895 12.7604741467402  11.101253844334 12.4167177600654  11.5507452093683 12.2152053954629  C 11.9765791341377 12.0018393623544  12.4053702389401 11.9307173513182  12.8371185237757 12.0018393623544  C 13.2688668086113 12.0729613733906  13.6473858528507 12.2833639893726  13.972675656494 12.6330472103004  Z M 15.5429382540809 16.4469650521153  C 16.2644901821623 15.5460862456571  16.5602081854743 14.5503780911506  16.430092264017 13.459840588596  C 16.2644901821623 12.1914980584508  15.5961674946771 11.2194972409565  14.4251242015614 10.5438381361128  C 13.2540809084457 9.86817903126916  12.0889519753963 9.79113018597997  10.9297374024131 10.3126916002452  C 10.1845280340667 10.6445943184141  9.59013484740951 11.1691191498058  9.14655784244145 11.8862660944206  C 8.70298083747339 12.6034130390354  8.49893541518808 13.3709380748007  8.53442157558552 14.1888412017167  C 8.58173645611545 15.2675250357654  9.04009936124911 16.1861843449826  9.90951029098651 16.9448191293685  C 10.7789212207239 17.7034539137543  11.7577478116868 18.0353566319232  12.8459900638751 17.9405272838749  C 13.9224035959309 17.8456979358267  14.8213863259995 17.3478438585735  15.5429382540809 16.4469650521153  Z M 19.3399574166075 4.64960147148989  C 19.8840785427017 4.44216227263437  20.3276555476697 4.1665644798692  20.6706884315117 3.82280809319436  C 20.4341140288621 3.50275904353158  20.1029098651526 3.23901491927243  19.6770759403833 3.03157572041692  C 19.2512420156139 2.82413652156141  18.9082091317719 2.69374616799509  18.6479772888573 2.64040465971796  C 18.3877454459428 2.58706315144083  17.9678258812397 2.51297772327815  17.388218594748 2.41814837522992  C 13.9460610361959 1.86102595544655  10.5985332387036 1.87287962395258  7.34563520227111 2.45370938074801  C 6.8370002365744 2.53668506029021  6.44665247220251 2.60780707132638  6.17459190915543 2.66707541385653  C 5.90253134610835 2.72634375638667  5.57724154246511 2.85673410995299  5.19872249822569 3.05824647455549  C 4.82020345398628 3.25975883915798  4.52448545067424 3.5146127120376  4.31156848828957 3.82280809319436  C 4.66643009226402 4.15471081136317  5.11592145729832 4.42438176987533  5.66004258339248 4.63182096873084  C 6.20416370948663 4.83926016758635  6.63886917435534 4.96965052115267  6.96415897799858 5.0229920294298  C 7.28944878164183 5.07633353770693  7.8069552874379 5.14449213161659  8.5166784953868 5.2274678111588  C 11.2136266855926 5.57122419783364  13.8632599952685 5.57715103208665  16.4655784244145 5.24524831391784  C 17.2107877927608 5.15041896586961  17.7401230186894 5.07929695483343  18.0535841022001 5.03188228080932  C 18.3670451857109 4.9844676067852  18.7958362905134 4.85704067034539  19.3399574166075 4.64960147148989  Z M 21.8239886444287 21.5677498467198  C 21.7293588833688 21.8996525648886  21.6820440028389 22.1189454322502  21.6820440028389 22.2256284488044  C 21.587414241779 22.5338238299612  21.4957416607523 22.9872266503168  21.4070262597587 23.5858369098712  C 21.3183108587651 24.1844471694257  21.2355098178377 24.6823012466789  21.1586231369766 25.0793991416309  C 21.0817364561155 25.4764970365829  20.9131771942276 25.8913754342939  20.652945351313 26.324034334764  C 20.3927135083984 26.756693235234  20.0496806245564 27.0915593705293  19.6238466997871 27.3286327406499  C 18.6065767683937 27.8976088289393  17.485805535841 28.3213774780298  16.2615330021292 28.5999386879215  C 15.0372604684173 28.8784998978132  13.8425597350367 29.0088902513795  12.6774308019872 28.9911097486205  C 11.5123018689378 28.9733292458614  10.3205583155903 28.8636828121807  9.10220014194464 28.6621704475782  C 8.55807901585048 28.5673410995299  8.07605867045186 28.4606580829757  7.65613910574876 28.3421213979154  C 7.23621954104566 28.2235847128551  6.78377099597824 28.0635601880237  6.29879347054649 27.8620478234212  C 5.81381594511474 27.6605354588187  5.38206766027916 27.4027181688126  5.00354861603974 27.0885959534028  C 4.62502957180033 26.7744737379931  4.31748284835581 26.4099734314327  4.08090844570617 25.9950950337216  C 3.78519044239413 24.8571428571429  3.44807191861841 23.1265072552626  3.06955287437899 20.8031882280809  L 3.17601135557133 20.5187001839362  L 3.49538679914833 20.3586756591048  C 6.13319138869175 22.1130185979971  9.12881476224272 22.9901900674433  12.4822569198013 22.9901900674433  C 15.8356990773598 22.9901900674433  18.8372368109771 22.1130185979971  21.4868701206529 20.3586756591048  C 21.7352732434351 20.429797670141  21.8772178850248 20.5661148579603  21.9127040454223 20.7676272225628  C 21.9481902058197 20.9691395871653  21.9186184054885 21.235847128551  21.8239886444287 21.5677498467198  Z M 24.9911284599006 4.17841814837523  C 24.9970428199669 4.54588187206213  24.9645138396026 4.86593092172491  24.8935415188077 5.13856529736358  C 24.5859947953631 7.11812793787043  23.9295008280104 11.0002043735949  22.9240596167495 16.7847946045371  C 22.8649160160871 17.140404659718  22.7052282942986 17.4723073778868  22.444996451384 17.7805027590435  C 22.1847646084694 18.0886981402003  21.9274899455879 18.3257715103209  21.6731724627395 18.4917228694053  C 21.4188549798912 18.6576742284897  21.096522356281 18.8414060903331  20.7061745919092 19.0429184549356  C 17.7253371185238 20.5364806866953  14.1175774781169 21.0580421009606  9.88289567068843 20.6076026977315  C 6.94937307783298 20.2875536480687  4.61911521173409 19.4637236868997  2.89212207239177 18.1361128142244  C 2.71469127040454 17.9938687921521  2.5638750887154 17.8368076844472  2.43967352732434 17.6649294911097  C 2.31547196593329 17.4930512977723  2.21492784480719 17.2856120989168  2.13804116394606 17.0426118945432  C 2.06115448308493 16.7996116901696  2.00792524248876 16.5980993255671  1.97835344215756 16.4380748007357  C 1.94878164182635 16.2780502759044  1.91329548142891 16.0439403229103  1.87189496096522 15.7357449417535  C 1.83049444050154 15.4275495605968  1.79796546013721 15.2201103617413  1.77430801987225 15.113427345187  C 1.66784953867992 14.5207439198856  1.51111899692453 13.6317187819334  1.3041163946061 12.4463519313305  C 1.09711379228767 11.2609850807276  0.931511710432931 10.3038013488657  0.807310149041874 9.57480073574494  C 0.683108587650816 8.84580012262416  0.544121126094157 7.97159207030452  0.390347764371895 6.95217657878602  C 0.236574402649633 5.93276108726752  0.106458481192335 4.99632127529123  0 4.14285714285714  C 0.035486160397445 3.83466176170039  0.13898746155666 3.54721030042919  0.310503903477644 3.28050275904353  C 0.482020345398628 3.01379521765788  0.668322687485214 2.79153893316983  0.869410929737403 2.6137339055794  C 1.07049917198959 2.43592887798896  1.33664537497043 2.25812385039853  1.66784953867992 2.08031882280809  C 1.9990537023894 1.90251379521766  2.27111426543648 1.76916002452483  2.48403122782115 1.68025751072961  C 2.69694819020582 1.5913549969344  2.98083747338538 1.48170856325363  3.33569907735983 1.35131820968731  C 4.81428909392004 0.806049458409971  6.66548379465342 0.426732066217044  8.88928317955997 0.213366033108522  C 13.3723681097705 -0.225219701614551  17.3704755145493 0.0711220110361751  20.8836053938964 1.1023911710607  C 22.717057014431 1.64765992233803  23.9886444286728 2.3707337012058  24.6983676366217 3.27161250766401  C 24.8876271587414 3.50868587778459  24.9852140998344 3.81095442468833  24.9911284599006 4.17841814837523  Z " fill-rule="nonzero" fill="#000000" stroke="none" transform="matrix(1 0 0 1 3838 4935 )" />
  </g>
</svg>