<?xml version="1.0" encoding="utf-8"?>
<svg version="1.1" xmlns:xlink="http://www.w3.org/1999/xlink" width="12px" height="882px" preserveAspectRatio="xMidYMin meet" viewBox="2754.25925925926 3644  10 882" xmlns="http://www.w3.org/2000/svg">
  <path d="M 2343.5 4506  L 2343.5 4515  A 5 5 0 0 0 2348.5 4520.5 L 2754.25925925926 4520.5  A 5 5 0 0 0 2759.75925925926 4515.5 L 2759.75925925926 3655  A 5 5 0 0 1 2764.25925925926 3650.5 L 2944 3650.5  A 3 3 0 0 1 2947 3647.5 A 3 3 0 0 1 2950 3650.5 L 3192 3650.5  A 5 5 0 0 0 3197.5 3645.5 " stroke-width="3" stroke="#0000ff" fill="none" />
  <path d="M 3209 3656  L 3197.5 3640  L 3186 3656  L 3209 3656  Z " fill-rule="nonzero" fill="#0000ff" stroke="none" />
</svg>