<?xml version="1.0" encoding="utf-8"?>
<svg version="1.1" xmlns:xlink="http://www.w3.org/1999/xlink" width="9px" height="9px" xmlns="http://www.w3.org/2000/svg">
  <g transform="matrix(1 0 0 1 -1398 -427 )">
    <path d="M 7.41796875 3.814453125  C 7.48828125 3.744140625  7.5234375 3.65625  7.5234375 3.55078125  C 7.5234375 3.44140625  7.48828125 3.3515625  7.41796875 3.28125  L 6.884765625 2.75390625  C 6.810546875 2.6796875  6.72265625 2.642578125  6.62109375 2.642578125  C 6.51953125 2.642578125  6.431640625 2.6796875  6.357421875 2.75390625  L 3.966796875 5.138671875  L 2.642578125 3.814453125  C 2.568359375 3.740234375  2.48046875 3.703125  2.37890625 3.703125  C 2.27734375 3.703125  2.189453125 3.740234375  2.115234375 3.814453125  L 1.58203125 4.341796875  C 1.51171875 4.412109375  1.4765625 4.501953125  1.4765625 4.611328125  C 1.4765625 4.716796875  1.51171875 4.8046875  1.58203125 4.875  L 3.703125 6.99609375  C 3.77734375 7.0703125  3.865234375 7.107421875  3.966796875 7.107421875  C 4.072265625 7.107421875  4.162109375 7.0703125  4.236328125 6.99609375  L 7.41796875 3.814453125  Z M 8.396484375 2.2412109375  C 8.798828125 2.9306640625  9 3.68359375  9 4.5  C 9 5.31640625  8.798828125 6.0693359375  8.396484375 6.7587890625  C 7.994140625 7.4482421875  7.4482421875 7.994140625  6.7587890625 8.396484375  C 6.0693359375 8.798828125  5.31640625 9  4.5 9  C 3.68359375 9  2.9306640625 8.798828125  2.2412109375 8.396484375  C 1.5517578125 7.994140625  1.005859375 7.4482421875  0.603515625 6.7587890625  C 0.201171875 6.0693359375  0 5.31640625  0 4.5  C 0 3.68359375  0.201171875 2.9306640625  0.603515625 2.2412109375  C 1.005859375 1.5517578125  1.5517578125 1.005859375  2.2412109375 0.603515625  C 2.9306640625 0.201171874999999  3.68359375 0  4.5 0  C 5.31640625 0  6.0693359375 0.201171874999999  6.7587890625 0.603515625  C 7.4482421875 1.005859375  7.994140625 1.5517578125  8.396484375 2.2412109375  Z " fill-rule="nonzero" fill="#797979" stroke="none" transform="matrix(1 0 0 1 1398 427 )" />
  </g>
</svg>