<?xml version="1.0" encoding="utf-8"?>
<svg version="1.1" xmlns:xlink="http://www.w3.org/1999/xlink" width="35px" height="35px" xmlns="http://www.w3.org/2000/svg">
  <g transform="matrix(1 0 0 1 -6793 -2774 )">
    <path d="M 6810.5 2774  C 6820.3 2774  6828 2781.7  6828 2791.5  C 6828 2801.3  6820.3 2809  6810.5 2809  C 6800.7 2809  6793 2801.3  6793 2791.5  C 6793 2781.7  6800.7 2774  6810.5 2774  Z " fill-rule="nonzero" fill="#ffffff" stroke="none" />
    <path d="M 6810.5 2774.5  C 6820.02 2774.5  6827.5 2781.98  6827.5 2791.5  C 6827.5 2801.02  6820.02 2808.5  6810.5 2808.5  C 6800.98 2808.5  6793.5 2801.02  6793.5 2791.5  C 6793.5 2781.98  6800.98 2774.5  6810.5 2774.5  Z " stroke-width="1" stroke="#797979" fill="none" />
  </g>
</svg>