<?xml version="1.0" encoding="utf-8"?>
<svg version="1.1" xmlns:xlink="http://www.w3.org/1999/xlink" width="23px" height="23px" xmlns="http://www.w3.org/2000/svg">
  <g transform="matrix(1 0 0 1 -6799 -3167 )">
    <path d="M 19.8995098039216 5.14399509803922  C 20.1625816993464 5.40706699346405  20.2941176470588 5.7218137254902  20.2941176470588 6.08823529411765  C 20.2941176470588 6.4640522875817  20.1625816993464 6.78349673202615  19.8995098039216 7.04656862745098  L 16.968137254902 9.97794117647059  C 16.7050653594771 10.2410130718954  16.3856209150327 10.3725490196078  16.0098039215686 10.3725490196078  C 15.6151960784314 10.3725490196078  15.2769607843137 10.2222222222222  14.9950980392157 9.92156862745098  C 15.0232843137255 9.89338235294118  15.1125408496732 9.80647467320261  15.2628676470588 9.66084558823529  C 15.4131944444444 9.51521650326798  15.5141952614379 9.41421568627451  15.5658700980392 9.3578431372549  C 15.6175449346405 9.30147058823529  15.688010620915 9.21221405228758  15.7772671568627 9.09007352941177  C 15.8665236928105 8.96793300653595  15.9275939542484 8.84814133986928  15.9604779411765 8.73069852941177  C 15.9933619281046 8.61325571895425  16.0098039215686 8.48406862745098  16.0098039215686 8.34313725490196  C 16.0098039215686 7.96732026143791  15.8782679738562 7.64787581699346  15.6151960784314 7.38480392156863  C 15.3521241830065 7.12173202614379  15.0326797385621 6.99019607843137  14.656862745098 6.99019607843137  C 14.515931372549 6.99019607843137  14.3867442810458 7.00663807189542  14.2693014705882 7.03952205882353  C 14.1518586601307 7.07240604575164  14.0320669934641 7.13347630718954  13.9099264705882 7.22273284313725  C 13.7877859477124 7.31198937908497  13.6985294117647 7.38245506535948  13.6421568627451 7.43412990196078  C 13.5857843137255 7.48580473856209  13.484783496732 7.58680555555556  13.3391544117647 7.73713235294118  C 13.1935253267974 7.8874591503268  13.1066176470588 7.97671568627451  13.078431372549 8.00490196078431  C 12.7683823529412 7.71364379084968  12.6133578431373 7.37071078431373  12.6133578431373 6.97610294117647  C 12.6133578431373 6.60028594771242  12.7448937908497 6.28084150326797  13.0079656862745 6.01776960784314  L 15.9111519607843 3.10049019607843  C 16.1648284313725 2.8468137254902  16.484272875817 2.71997549019608  16.8694852941176 2.71997549019608  C 17.2453022875817 2.71997549019608  17.5647467320261 2.8421160130719  17.827818627451 3.08639705882353  L 19.8995098039216 5.14399509803922  Z M 9.92156862745098 14.9950980392157  C 10.2316176470588 15.2863562091503  10.3866421568627 15.6292892156863  10.3866421568627 16.0238970588235  C 10.3866421568627 16.3997140522876  10.2551062091503 16.719158496732  9.99203431372549 16.9822303921569  L 7.08884803921569 19.8995098039216  C 6.82577614379085 20.1625816993464  6.50633169934641 20.2941176470588  6.13051470588235 20.2941176470588  C 5.7640931372549 20.2941176470588  5.44464869281046 20.1672794117647  5.17218137254902 19.9136029411765  L 3.10049019607843 17.8560049019608  C 2.83741830065359 17.592933006536  2.70588235294118 17.2781862745098  2.70588235294118 16.9117647058824  C 2.70588235294118 16.5359477124183  2.83741830065359 16.2165032679739  3.10049019607843 15.953431372549  L 6.03186274509804 13.0220588235294  C 6.28553921568628 12.7683823529412  6.60498366013072 12.6415441176471  6.99019607843137 12.6415441176471  C 7.38480392156863 12.6415441176471  7.72303921568627 12.7871732026144  8.00490196078431 13.078431372549  C 7.97671568627451 13.1066176470588  7.8874591503268 13.1935253267974  7.73713235294118 13.3391544117647  C 7.58680555555556 13.484783496732  7.48580473856209 13.5857843137255  7.43412990196078 13.6421568627451  C 7.38245506535948 13.6985294117647  7.31198937908497 13.7877859477124  7.22273284313725 13.9099264705882  C 7.13347630718954 14.0320669934641  7.07240604575163 14.1518586601307  7.03952205882353 14.2693014705882  C 7.00663807189543 14.3867442810458  6.99019607843137 14.515931372549  6.99019607843137 14.656862745098  C 6.99019607843137 15.0326797385621  7.12173202614379 15.3521241830065  7.38480392156863 15.6151960784314  C 7.64787581699346 15.8782679738562  7.96732026143791 16.0098039215686  8.34313725490196 16.0098039215686  C 8.48406862745098 16.0098039215686  8.61325571895425 15.9933619281046  8.73069852941176 15.9604779411765  C 8.84814133986928 15.9275939542484  8.96793300653595 15.8665236928105  9.09007352941176 15.7772671568627  C 9.21221405228758 15.688010620915  9.30147058823529 15.6175449346405  9.3578431372549 15.5658700980392  C 9.41421568627451 15.5141952614379  9.51521650326798 15.4131944444444  9.66084558823529 15.2628676470588  C 9.80647467320262 15.1125408496732  9.89338235294118 15.0232843137255  9.92156862745098 14.9950980392157  Z M 21.8161764705882 8.96323529411765  C 22.6053921568627 8.17401960784314  23 7.2156862745098  23 6.08823529411765  C 23 4.96078431372549  22.6006944444444 4.00714869281046  21.8020833333333 3.22732843137255  L 19.7303921568627 1.16973039215686  C 18.9505718954248 0.389910130718955  17.9969362745098 0  16.8694852941176 0  C 15.7326388888889 0  14.7743055555556 0.399305555555554  13.9944852941176 1.19791666666667  L 11.0912990196078 4.11519607843137  C 10.3114787581699 4.89501633986928  9.92156862745098 5.84865196078431  9.92156862745098 6.97610294117647  C 9.92156862745098 8.13174019607843  10.3349673202614 9.11356209150327  11.1617647058824 9.92156862745098  L 9.92156862745098 11.1617647058824  C 9.11356209150327 10.3349673202614  8.13643790849673 9.92156862745098  6.99019607843137 9.92156862745098  C 5.86274509803922 9.92156862745098  4.90441176470588 10.3161764705882  4.11519607843137 11.1053921568627  L 1.18382352941176 14.0367647058824  C 0.394607843137255 14.8259803921569  0 15.7843137254902  0 16.9117647058824  C 0 18.0392156862745  0.399305555555555 18.9928513071895  1.19791666666667 19.7726715686275  L 3.26960784313725 21.8302696078431  C 4.04942810457516 22.610089869281  5.0030637254902 23  6.13051470588235 23  C 7.26736111111111 23  8.22569444444445 22.6006944444444  9.00551470588235 21.8020833333333  L 11.9087009803922 18.8848039215686  C 12.6885212418301 18.1049836601307  13.078431372549 17.1513480392157  13.078431372549 16.0238970588235  C 13.078431372549 14.8682598039216  12.6650326797386 13.8864379084967  11.8382352941176 13.078431372549  L 13.078431372549 11.8382352941176  C 13.8864379084967 12.6650326797386  14.8635620915033 13.078431372549  16.0098039215686 13.078431372549  C 17.1372549019608 13.078431372549  18.0955882352941 12.6838235294118  18.8848039215686 11.8946078431373  L 21.8161764705882 8.96323529411765  Z " fill-rule="nonzero" fill="#000000" stroke="none" transform="matrix(1 0 0 1 6799 3167 )" />
  </g>
</svg>