<svg t="1646130583638" class="icon" viewBox="0 0 1024 1024" version="1.1" xmlns="http://www.w3.org/2000/svg" p-id="3653" width="200" height="200"><path d="M857.595387 468.18018c-13.893189-20.166342-27.195964-40.812396-42.436036-59.945513-122.344937-153.895207-315.392-206.349838-495.523747-102.363099-12.730811 7.38018-20.424649 4.90782-29.114811-5.055424-18.321297-21.015063-37.177658-41.587315-55.738811-62.233369L175.279279 295.539315 697.13182 811.81982l61.384648-52.122523-73.525045-60.037765c11.236324-8.468757 16.937514-13.727135 23.487424-17.546379 64.576577-37.602018 110.850306-92.399856 149.024288-155.389694 12.288-20.277045 13.450378-39.133405 0.092252-58.543279zM627.315315 634.271135l-57.546955-64.004612c42.620541-53.026595 46.624288-99.982991 9.225226-141.053694s-81.956901-38.745946-150.924685 8.911567c-16.125694-16.605405-33.59827-32.509694-48.174126-50.79409-3.69009-4.649514-1.309982-19.428324 3.542486-24.815856 51.882667-57.620757 152.253117-69.61355 221.626811-27.675675C716.191135 402.21982 728.202378 557.904721 627.315315 634.271135zM176.330955 543.421117c45.240505 71.68 103.599279 126.606991 181.644685 160.039207 38.173982 16.36555 77.049081 30.037333 121.348612 29.207063L183.932541 439.655784c-32.435892 31.255063-32.509694 64.29982-7.601586 103.765333z" p-id="3654" fill="#707070"></path></svg>