<?xml version="1.0" encoding="utf-8"?>
<svg version="1.1" xmlns:xlink="http://www.w3.org/1999/xlink" width="15px" height="23px" xmlns="http://www.w3.org/2000/svg">
  <g transform="matrix(1 0 0 1 -149 -1232 )">
    <path d="M 14.7422680412371 1.38276553106212  C 14.914089347079 1.53640614562458  15 1.71309285237141  15 1.91282565130261  C 15 2.1125584502338  14.914089347079 2.28924515698063  14.7422680412371 2.44288577154309  L 4.61340206185567 11.5  L 14.7422680412371 20.5571142284569  C 14.914089347079 20.7107548430194  15 20.8874415497662  15 21.0871743486974  C 15 21.2869071476286  14.914089347079 21.4635938543754  14.7422680412371 21.6172344689379  L 13.4536082474227 22.7695390781563  C 13.2817869415808 22.9231796927188  13.0841924398625 23  12.860824742268 23  C 12.6374570446735 23  12.4398625429553 22.9231796927188  12.2680412371134 22.7695390781563  L 0.257731958762887 12.0300601202405  C 0.0859106529209623 11.876419505678  0 11.6997327989312  0 11.5  C 0 11.3002672010688  0.0859106529209623 11.123580494322  0.257731958762887 10.9699398797595  L 12.2680412371134 0.230460921843688  C 12.4398625429553 0.0768203072812284  12.6374570446735 0  12.860824742268 0  C 13.0841924398625 0  13.2817869415808 0.0768203072812284  13.4536082474227 0.230460921843688  L 14.7422680412371 1.38276553106212  Z " fill-rule="nonzero" fill="#c8c8c8" stroke="none" transform="matrix(1 0 0 1 149 1232 )" />
  </g>
</svg>