<?xml version="1.0" encoding="utf-8"?>
<svg version="1.1" xmlns:xlink="http://www.w3.org/1999/xlink" width="21px" height="13px" xmlns="http://www.w3.org/2000/svg">
  <g transform="matrix(1 0 0 1 -1019 -1443 )">
    <path d="M 21 10.1173913043478  C 21 10.3392914653784  20.9174937965261 10.5297906602254  20.7524813895782 10.6888888888889  L 18.5899503722084 12.7613526570048  C 18.4249379652605 12.9204508856683  18.2295285359802 13  18.0037220843672 13  C 17.7779156327543 13  17.5825062034739 12.9204508856683  17.4174937965261 12.7613526570048  L 10.5 6.09178743961353  L 3.58250620347395 12.7613526570048  C 3.41749379652606 12.9204508856683  3.22208436724566 13  2.99627791563275 13  C 2.77047146401985 13  2.57506203473945 12.9204508856683  2.41004962779156 12.7613526570048  L 0.247518610421836 10.6888888888889  C 0.0825062034739455 10.5297906602254  0 10.3392914653784  0 10.1173913043478  C 0 9.89549114331723  0.0825062034739455 9.70499194847021  0.247518610421836 9.54589371980676  L 9.91377171215881 0.238647342995169  C 10.0787841191067 0.0795491143317225  10.2741935483871 0  10.5 0  C 10.7258064516129 0  10.9212158808933 0.0795491143317225  11.0862282878412 0.238647342995169  L 20.7524813895782 9.54589371980676  C 20.9174937965261 9.70499194847021  21 9.89549114331723  21 10.1173913043478  Z " fill-rule="nonzero" fill="#c1c1c1" stroke="none" transform="matrix(1 0 0 1 1019 1443 )" />
  </g>
</svg>