<?xml version="1.0" encoding="utf-8"?>
<svg version="1.1" xmlns:xlink="http://www.w3.org/1999/xlink" width="12px" height="12px" viewBox="613 1911.5  12 12" xmlns="http://www.w3.org/2000/svg">
  <path d="M 619 1911.5  C 622.36 1911.5  625 1914.14  625 1917.5  C 625 1920.86  622.36 1923.5  619 1923.5  C 615.64 1923.5  613 1920.86  613 1917.5  C 613 1914.14  615.64 1911.5  619 1911.5  Z " fill-rule="nonzero" fill="#ffffff" stroke="none" />
  <path d="M 619 1912  C 622.08 1912  624.5 1914.42  624.5 1917.5  C 624.5 1920.58  622.08 1923  619 1923  C 615.92 1923  613.5 1920.58  613.5 1917.5  C 613.5 1914.42  615.92 1912  619 1912  Z " stroke-width="1" stroke="#797979" fill="none" />
  <path d="M 619 1920.5  C 617.32 1920.5  616 1919.18  616 1917.5  C 616 1915.82  617.32 1914.5  619 1914.5  C 620.68 1914.5  622 1915.82  622 1917.5  C 622 1919.18  620.68 1920.5  619 1920.5  " fill-rule="nonzero" fill="#797979" stroke="none" />
</svg>