<?xml version="1.0" encoding="utf-8"?>
<svg version="1.1" xmlns:xlink="http://www.w3.org/1999/xlink" width="11px" height="7px" xmlns="http://www.w3.org/2000/svg">
  <g transform="matrix(1 0 0 1 -1022 -247 )">
    <path d="M 10.8897795591182 0.721649484536082  C 10.9632598530394 0.801832760595645  11 0.894043528064146  11 0.998281786941581  C 11 1.10252004581901  10.9632598530394 1.19473081328751  10.8897795591182 1.27491408934708  L 5.75350701402806 6.87972508591065  C 5.68002672010688 6.95990836197022  5.59552438209753 7  5.5 7  C 5.40447561790247 7  5.31997327989312 6.95990836197022  5.24649298597194 6.87972508591065  L 0.110220440881764 1.27491408934708  C 0.036740146960588 1.19473081328751  0 1.10252004581901  0 0.998281786941581  C 0 0.894043528064146  0.036740146960588 0.801832760595645  0.110220440881764 0.721649484536082  L 0.661322645290581 0.120274914089347  C 0.734802939211757 0.0400916380297814  0.819305277221109 0  0.914829659318637 0  C 1.01035404141617 0  1.09485637942552 0.0400916380297814  1.16833667334669 0.120274914089347  L 5.5 4.84707903780069  L 9.83166332665331 0.120274914089347  C 9.90514362057448 0.0400916380297814  9.98964595858383 0  10.0851703406814 0  C 10.1806947227789 0  10.2651970607882 0.0400916380297814  10.3386773547094 0.120274914089347  L 10.8897795591182 0.721649484536082  Z " fill-rule="nonzero" fill="#cdcdcd" stroke="none" transform="matrix(1 0 0 1 1022 247 )" />
  </g>
</svg>