<?xml version="1.0" encoding="utf-8"?>
<svg version="1.1" xmlns:xlink="http://www.w3.org/1999/xlink" width="14px" height="12px" xmlns="http://www.w3.org/2000/svg">
  <g transform="matrix(1 0 0 1 -286 -245 )">
    <path d="M 13.2662444628906 6.7023249609375  C 13.5428201757813 6.42751309570312  13.6131232421875 6.02247682617188  13.4734242578125 5.68219998046875  C 13.47246671875 5.67847063476562  13.4677798632813 5.6746908984375  13.4659151757813 5.67096158203125  C 13.4209111328125 5.5650282421875  13.359024296875 5.4637817578125  13.2727959765625 5.3765958984375  C 13.2718384375 5.375638359375  13.2709313183594 5.375638359375  13.2699737792969 5.37473124023438  C 13.2690162402344 5.37377370117187  13.2690162402344 5.37286658203125  13.2681091210938 5.37190904296875  L 8.6124848828125 0.703181718749999  C 8.24685862304688 0.337555458984372  7.65434754882813 0.334733261718748  7.2868566015625 0.701317060546874  C 6.92027280273438 1.0669433203125  6.91936568359375 1.66036154296875  7.28499194335938 2.02694534179687  L 10.312206015625 5.06257564453125  L 1.375 5.0625755859375  C 0.85747884765625 5.0625755859375  0.437525195312499 5.48257962890625  0.437525195312499 6.00010078125  C 0.437525195312499 6.51762193359376  0.85752923828125 6.9376259765625  1.375 6.9376259765625  L 10.3618969140625 6.9376259765625  L 7.25314137695312 10.0126158984375  C 6.88469291992187 10.3772846191406  6.88187072265625 10.9697957226563  7.24563229492187 11.3382441796875  C 7.42842021484375 11.5238543261719  7.67032319335937 11.6166845800781  7.91217578125 11.6166845800781  C 8.1502990234375 11.6166845800781  8.388422265625 11.525769375  8.57126057617187 11.3457532617188  L 13.2662444628906 6.7023249609375  Z " fill-rule="nonzero" fill="#bfbfbf" stroke="none" transform="matrix(1 0 0 1 286 245 )" />
  </g>
</svg>