<?xml version="1.0" encoding="utf-8"?>
<svg version="1.1" xmlns:xlink="http://www.w3.org/1999/xlink" width="14px" height="12px" xmlns="http://www.w3.org/2000/svg">
  <g transform="matrix(1 0 0 1 -247 -245 )">
    <path d="M 0.714100908203125 5.34177193359375  C 0.437525195312499 5.61658379882813  0.368129277343749 6.02061213867188  0.506870722656251 6.3618969140625  C 0.507828261718752 6.36562625976563  0.512515117187501 6.36940599609375  0.514379804687501 6.3731353125  C 0.55938384765625 6.47906865234375  0.621270683593751 6.58031513671875  0.70749900390625 6.66750099609375  C 0.708456542968751 6.66845853515625  0.709363662109375 6.66845853515625  0.710321201171874 6.66936565429687  C 0.711278740234375 6.6702727734375  0.711278740234375 6.6712303125  0.712185859374999 6.6721878515625  L 5.36781009765625 11.3409151757812  C 5.73343635742188 11.7074989746094  6.32594743164062 11.7093636328125  6.69343837890625 11.3427798339844  C 7.06002217773437 10.9771535742187  7.060929296875 10.3846425  6.69530303710937 10.0171515527344  L 3.66813935546875 6.98152125  L 12.6053453710938 6.98152125  C 13.1228665234375 6.98152125  13.5428201757813 6.56151720703125  13.5428201757813 6.0439960546875  C 13.5428201757813 5.52647490234375  13.1228161328125 5.106470859375  12.6053453710938 5.106470859375  L 3.61844845703125 5.10647091796875  L 6.72720399414063 2.03148099609375  C 7.09565245117188 1.66681227539063  7.0984746484375 1.074301171875  6.73471307617187 0.705852714843751  C 6.55187473632812 0.520242568359375  6.31002217773437 0.427412314453125  6.06816958984375 0.427412314453125  C 5.83004634765625 0.427412314453125  5.59192310546875 0.518327519531249  5.40908479492187 0.698343632812501  L 0.714100908203125 5.34177193359375  Z " fill-rule="nonzero" fill="#bfbfbf" stroke="none" transform="matrix(1 0 0 1 247 245 )" />
  </g>
</svg>