<?xml version="1.0" encoding="utf-8"?>
<svg version="1.1" xmlns:xlink="http://www.w3.org/1999/xlink" width="30px" height="25px" xmlns="http://www.w3.org/2000/svg">
  <g transform="matrix(1 0 0 1 -194 -237 )">
    <path d="M 28.5013351817298 12.2879183673469  L 29.2228123440233 13.0093955296404  C 29.6268395549077 13.3941833495303  29.8384728558471 13.8174499514091  29.8577122468416 14.279195335277  C 29.8769516378361 14.7409407191448  29.7230365098801 15.1257285390347  29.3959668629738 15.4335587949466  C 29.0304184340784 15.7606284418529  28.6071518321995 15.9145435698089  28.1261670573372 15.8953041788144  C 27.6451822824749 15.8760647878199  27.260394462585 15.7413890508584  26.9718035976676 15.49127696793  C 26.8756066426952 15.4143194039521  26.5822059300292 15.1449679300292  26.0916014596696 14.6832225461613  C 25.60099698931 14.2214771622935  25.014195563978 13.6683446712018  24.3311971836735 13.0238250728863  C 23.648198803369 12.3793054745708  22.9171019455782 11.686687398769  22.1379066103013 10.945970845481  C 21.3587112750243 10.2052542921931  20.6228045694849 9.5078263686427  19.9301864936832 8.85368707482993  C 19.2375684178814 8.19954778101717  18.6411472970522 7.63198574667963  18.1409231311953 7.1510009718173  C 17.6406989653385 6.67001619695497  17.3232490139294 6.37180563654033  17.1885732769679 6.25636929057337  C 16.5729127651442 5.69842695173308  15.9668719488176 5.42907547781017  15.3704508279883 5.44831486880467  C 14.7740297071591 5.46755425979916  14.187228281827 5.73690573372206  13.6100465519922 6.25636929057337  C 13.4176526420473 6.42952380952381  13.0569140609006 6.76140330417882  12.527830808552 7.25200777453839  C 11.9987475562034 7.74261224489796  11.3878968921283 8.31498412698413  10.6952788163265 8.96912342079689  C 10.0026607405248 9.62326271460965  9.27156388273404 10.3062610949142  8.50198824295432 11.0181185617104  C 7.7324126031746 11.7299760285066  7.02055513637836 12.3937350178167  6.3664158425656 13.0093955296404  C 5.71227654875283 13.6250560414642  5.14952436216391 14.1493294460641  4.67815928279883 14.5822157434402  C 4.20679420343375 15.0151020408163  3.92301318626498 15.2700239714934  3.82681623129252 15.3469815354713  C 3.53822536637512 15.5778542274052  3.15343754648526 15.7029102688695  2.67245277162293 15.7221496598639  C 2.19146799676061 15.7413890508584  1.77782109037901 15.5970936183997  1.43151205247813 15.2892633624879  C 1.04672423258827 14.942954324587  0.863950018140588 14.5244975704568  0.883189409135081 14.0338931000972  C 0.902428800129574 13.5432886297376  1.06596362358276 13.1536909620991  1.37379387949465 12.8651000971817  C 1.48923022546161 12.7496637512148  1.84515895885973 12.4129744088111  2.44158007968902 11.8550320699708  C 3.0380012005183 11.2970897311305  3.74985866731454 10.6333307418205  4.57715248007774 9.86375510204082  C 5.40444629284094 9.0941794622611  6.29426812633625 8.2668856494979  7.24661798056365 7.38187366375122  C 8.19896783479106 6.49686167800454  9.08397982053774 5.66956786524134  9.90165393780369 4.89999222546161  C 10.7193280550696 4.13041658568189  11.4215658263686 3.47146744412051  12.0083672517007 2.92314480077745  C 12.5951686770327 2.3748221574344  12.936667867185 2.05256235827664  13.0328648221574 1.95636540330418  C 13.7639616799482 1.24450793650794  14.5527767107224 0.883769355361193  15.3993099144801 0.874149659863946  C 16.2458431182378 0.8645299643667  16.9673202805313 1.14831098153547  17.5637414013605 1.72549271137026  C 17.6791777473275 1.82168966634273  17.9196701347587 2.04775251052802  18.285218563654 2.40368124392614  C 18.6507669925494 2.75960997732426  19.0980828331714 3.19249627470036  19.6271660855199 3.70234013605442  C 20.1562493378685 4.21218399740849  20.7478606109491 4.78455587949466  21.4019999047619 5.41945578231293  C 22.0561391985747 6.0543556851312  22.7198981878847 6.69406543569809  23.3932768726919 7.33858503401361  C 24.0666555574992 7.98310463232912  24.7256046990606 8.62281438289602  25.3701242973761 9.25771428571429  C 26.0146438956916 9.89261418853255  26.6062551687723 10.4649860706187  27.1449581166181 10.9748299319728  C 27.6836610644639 11.4846737933269  28.1357867528345 11.9223699384516  28.5013351817298 12.2879183673469  Z M 13.0472943654033 9.35872108843537  C 13.3455049258179 9.07974991901522  13.5330889880143 8.90178555231616  13.6100465519922 8.82482798833819  C 14.0910313268546 8.38232199546485  14.6682130566893 8.14663945578231  15.3415917414966 8.11778036929057  C 16.0149704263039 8.08892128279883  16.6210112426304 8.32460382248137  17.1597141904762 8.82482798833819  C 17.2174323634597 8.88254616132167  17.3905868824101 9.04608098477486  17.6791777473275 9.31543245869777  L 18.7758230340136 10.3255004859087  C 19.1990896358925 10.729527696793  19.6752645630062 11.1816533851636  20.2043478153547 11.6818775510204  C 20.7334310677033 12.1821017168772  21.2769438632977 12.682325882734  21.834886202138 13.1825500485909  C 23.123925398769 14.3753922902494  24.566879723356 15.7125299643667  26.1637491758989 17.1939630709427  L 26.1637491758989 22.6771895043732  C 26.1637491758989 23.100456106252  26.0050242001944 23.4756242306446  25.6875742487852 23.802693877551  C 25.3701242973761 24.1297635244574  24.9420478477486 24.3029180434078  24.4033448999028 24.3221574344023  L 18.948977552964 24.3221574344023  L 18.948977552964 19.8489990281827  C 18.948977552964 19.2140991253644  18.6507669925494 18.8966491739553  18.0543458717201 18.8966491739553  L 12.5422603517979 18.8966491739553  C 12.2151907048915 18.8966491739553  11.9891278607062 18.9928461289278  11.864071819242 19.1852400388727  C 11.7390157777778 19.3776339488176  11.6764877570457 19.5988869452543  11.6764877570457 19.8489990281827  C 11.6764877570457 19.9644353741497  11.6716779092971 20.2578360868157  11.6620582137998 20.7292011661808  C 11.6524385183026 21.2005662455458  11.6476286705539 21.7056002591513  11.6476286705539 22.2443032069971  L 11.6476286705539 24.3221574344023  L 6.3664158425656 24.3221574344023  C 5.8084735037253 24.3221574344023  5.36596751085196 24.1971013929381  5.03889786394558 23.9469893100097  C 4.7118282170392 23.6968772270813  4.548293393586 23.3409484936832  4.548293393586 22.8792031098154  L 4.548293393586 17.1362448979592  C 6.12592345513443 15.6932905733722  7.55925808422417 14.3850119857467  8.8482972808552 13.2114091350826  C 9.387000228701 12.7111849692258  9.92570317654681 12.2157706511176  10.4644061243926 11.725166180758  C 11.0031090722384 11.2345617103984  11.493713542598 10.7872458697765  11.9362195354713 10.3832186588921  C 12.3787255283447 9.97919144800777  12.7490838049887 9.63769225785552  13.0472943654033 9.35872108843537  Z " fill-rule="nonzero" fill="#bfbfbf" stroke="none" transform="matrix(1 0 0 1 194 237 )" />
  </g>
</svg>