<?xml version="1.0" encoding="utf-8"?>
<svg version="1.1" xmlns:xlink="http://www.w3.org/1999/xlink" width="21px" height="21px" xmlns="http://www.w3.org/2000/svg">
  <g transform="matrix(1 0 0 1 -1053 -239 )">
    <path d="M 12.126953125 17.376953125  C 12.208984375 17.294921875  12.25 17.1901041666667  12.25 17.0625  L 12.25 14.4375  C 12.25 14.3098958333333  12.208984375 14.205078125  12.126953125 14.123046875  C 12.044921875 14.041015625  11.9401041666667 14  11.8125 14  L 9.1875 14  C 9.05989583333333 14  8.955078125 14.041015625  8.873046875 14.123046875  C 8.791015625 14.205078125  8.75 14.3098958333333  8.75 14.4375  L 8.75 17.0625  C 8.75 17.1901041666667  8.791015625 17.294921875  8.873046875 17.376953125  C 8.955078125 17.458984375  9.05989583333333 17.5  9.1875 17.5  L 11.8125 17.5  C 11.9401041666667 17.5  12.044921875 17.458984375  12.126953125 17.376953125  Z M 15.5791015625 8.982421875  C 15.6930338541667 8.64518229166667  15.75 8.27604166666667  15.75 7.875  C 15.75 7.07291666666667  15.4970703125 6.330078125  14.9912109375 5.646484375  C 14.4853515625 4.962890625  13.8541666666667 4.43424479166667  13.09765625 4.060546875  C 12.3411458333333 3.68684895833333  11.56640625 3.5  10.7734375 3.5  C 8.55859375 3.5  6.86783854166667 4.470703125  5.701171875 6.412109375  C 5.564453125 6.630859375  5.60091145833333 6.822265625  5.810546875 6.986328125  L 7.615234375 8.353515625  C 7.67903645833333 8.408203125  7.765625 8.435546875  7.875 8.435546875  C 8.02083333333333 8.435546875  8.134765625 8.380859375  8.216796875 8.271484375  C 8.69986979166667 7.65169270833333  9.091796875 7.232421875  9.392578125 7.013671875  C 9.70247395833333 6.794921875  10.0944010416667 6.685546875  10.568359375 6.685546875  C 11.005859375 6.685546875  11.3955078125 6.80403645833333  11.7373046875 7.041015625  C 12.0791015625 7.27799479166667  12.25 7.546875  12.25 7.84765625  C 12.25 8.19401041666667  12.1588541666667 8.47200520833333  11.9765625 8.681640625  C 11.7942708333333 8.89127604166667  11.484375 9.09635416666667  11.046875 9.296875  C 10.47265625 9.55208333333333  9.9462890625 9.9462890625  9.4677734375 10.4794921875  C 8.9892578125 11.0126953125  8.75 11.5846354166667  8.75 12.1953125  L 8.75 12.6875  C 8.75 12.8151041666667  8.791015625 12.919921875  8.873046875 13.001953125  C 8.955078125 13.083984375  9.05989583333333 13.125  9.1875 13.125  L 11.8125 13.125  C 11.9401041666667 13.125  12.044921875 13.083984375  12.126953125 13.001953125  C 12.208984375 12.919921875  12.25 12.8151041666667  12.25 12.6875  C 12.25 12.5143229166667  12.3479817708333 12.2887369791667  12.5439453125 12.0107421875  C 12.7399088541667 11.7327473958333  12.98828125 11.5071614583333  13.2890625 11.333984375  C 13.5807291666667 11.169921875  13.8040364583333 11.0400390625  13.958984375 10.9443359375  C 14.1139322916667 10.8486328125  14.3235677083333 10.6891276041667  14.587890625 10.4658203125  C 14.8522135416667 10.2425130208333  15.0550130208333 10.0237630208333  15.1962890625 9.8095703125  C 15.3375651041667 9.59537760416666  15.4651692708333 9.31966145833333  15.5791015625 8.982421875  Z M 19.591796875 5.2294921875  C 20.5305989583333 6.83821614583333  21 8.59505208333333  21 10.5  C 21 12.4049479166667  20.5305989583333 14.1617838541667  19.591796875 15.7705078125  C 18.6529947916667 17.3792317708333  17.3792317708333 18.6529947916667  15.7705078125 19.591796875  C 14.1617838541667 20.5305989583333  12.4049479166667 21  10.5 21  C 8.59505208333333 21  6.83821614583333 20.5305989583333  5.2294921875 19.591796875  C 3.62076822916667 18.6529947916667  2.34700520833333 17.3792317708333  1.408203125 15.7705078125  C 0.469401041666667 14.1617838541667  0 12.4049479166667  0 10.5  C 0 8.59505208333333  0.469401041666667 6.83821614583333  1.408203125 5.2294921875  C 2.34700520833333 3.62076822916667  3.62076822916667 2.34700520833333  5.2294921875 1.408203125  C 6.83821614583333 0.469401041666665  8.59505208333333 0  10.5 0  C 12.4049479166667 0  14.1617838541667 0.469401041666665  15.7705078125 1.408203125  C 17.3792317708333 2.34700520833333  18.6529947916667 3.62076822916667  19.591796875 5.2294921875  Z " fill-rule="nonzero" fill="#d3d3d3" stroke="none" transform="matrix(1 0 0 1 1053 239 )" />
  </g>
</svg>